<?xml version="1.0" encoding="UTF-8"?>
<svg width="512" height="512" version="1.1" viewBox="0 0 512 512" xmlns="http://www.w3.org/2000/svg">
 <path d="m233.5 1.069c-116.53 9.938-193.55 93.966-193.8 211.43-0.167 79.258 70.025 181.4 198.31 288.59 18.721 15.64 18.012 15.811 50.49-12.128 112.21-96.529 177.09-189.05 183.48-261.65 11.94-135.57-96.408-238.35-238.48-226.24m-38.5 137.61c-2.879 1.184-2.969 3.244-2.985 68.133-0.018 76.688-0.12037 69.184 2.9645 68.751 3.5888-0.50321 22.873 1.6644 22.827-3.0305-0.33567-33.77 4.6115-122.41-1.7842-132.54-0.991-1.569-17.844-2.625-21.022-1.317m61.74 0.482c-1.654 1.255-1.744 5.399-1.5 68.835l0.26 67.5h23l0.267-26.25 0.266-26.25 19.734-0.02c40.469-0.04 54.105-6.962 59.237-30.068 5.623-25.313-5.142-45.912-27.504-52.629-7.117-2.137-71.136-3.108-73.76-1.118m22.26 41.248v20.587l19.25-6e-3c30.237-8e-3 36.667-3.612 36.728-20.587 0.058-16.214-6.129-19.772-35.198-20.244l-20.78-0.338v20.588" fill="#343434" fill-rule="evenodd"/>
</svg>
