<svg xmlns="http://www.w3.org/2000/svg" width="482" height="467" viewBox="0 0 482 467" version="1.1"><path d="M 250.795 47.188 C 246.860 50.216, 246.574 53.187, 246.211 94.750 L 245.859 135 162.824 135 C 90.282 135, 79.012 135.200, 73.644 136.585 C 53.502 141.782, 37.004 158.341, 31.261 179.124 C 28.600 188.758, 28.600 277.242, 31.261 286.876 C 37.004 307.659, 53.502 324.218, 73.644 329.415 C 79.012 330.800, 90.282 331, 162.824 331 L 245.859 331 246.179 371.250 C 246.578 421.337, 247.287 423.885, 259.173 417.964 C 265.011 415.056, 426.116 254.029, 431.635 245.587 C 442.965 228.253, 444.857 230.786, 348.061 133.703 C 260.156 45.537, 256.809 42.560, 250.795 47.188" stroke="none" fill="#343434" fill-rule="evenodd"/></svg>