<svg xmlns="http://www.w3.org/2000/svg" width="512" height="512" viewBox="0 0 512 512" version="1.1"><path d="M 237.742 4.061 C 59.384 16.855, -49.125 206.254, 29.522 367.500 C 119.875 552.747, 385.390 555.397, 480.341 372 C 570.755 197.366, 434.017 -10.018, 237.742 4.061 M 173.500 139.980 C 172.400 140.449, 164.380 147.996, 155.677 156.751 L 139.854 172.669 139.314 176.695 C 138.409 183.441, 140.605 186.116, 176.496 221.996 L 211 256.489 175.250 292.250 L 139.500 328.010 139.500 333.501 L 139.500 338.993 156.254 355.746 L 173.007 372.500 178.495 372.500 L 183.983 372.500 205.241 351.498 C 216.934 339.946, 233.133 323.982, 241.240 316.020 L 255.981 301.545 291.240 336.691 C 336.470 381.776, 331.279 380.255, 355.869 355.631 L 372.146 339.332 372.686 335.305 C 373.616 328.370, 371.419 325.729, 335.373 290.455 L 300.870 256.692 336.354 221.096 C 381.857 175.450, 380.299 180.765, 355.454 155.954 L 338.977 139.500 333.494 139.500 L 328.010 139.500 291.937 175.500 L 255.863 211.500 221.046 176.269 C 183.076 137.848, 181.436 136.596, 173.500 139.980" stroke="none" fill="#343434" fill-rule="evenodd"/></svg>