<svg xmlns="http://www.w3.org/2000/svg" width="388" height="388" viewBox="0 0 388 388" version="1.1"><path d="M 138.500 17.929 C 134.717 18.842, 131.700 20.451, 130.053 22.436 C 129.287 23.359, 127.009 38.180, 124.396 59.241 C 121.990 78.633, 119.771 95.963, 119.465 97.750 L 118.909 101 103.705 101.002 C 80.623 101.004, 78.846 102.458, 78.171 121.902 C 77.398 144.124, 79.037 146, 99.220 146 L 114.091 146 113.528 149.250 C 112.916 152.780, 105 217.468, 105 218.933 C 105 219.425, 97.610 219.979, 88.578 220.164 C 66.564 220.614, 65 222.186, 65 243.865 C 65 263.229, 66.696 265, 85.236 265 L 99.123 265 98.541 269.250 C 90.951 324.734, 89.136 351.184, 92.750 353.635 C 101.828 359.791, 138.988 355.466, 141.018 348.017 C 141.809 345.115, 151 269.695, 151 266.107 C 151 265.323, 159.460 265, 180 265 C 206.953 265, 209 265.124, 208.997 266.750 C 208.996 267.712, 206.974 285.150, 204.503 305.500 C 197.866 360.178, 195.995 355.500, 224.500 355.500 C 253.157 355.500, 250.255 359.782, 256.013 309 C 258.227 289.475, 260.306 271.587, 260.633 269.250 L 261.227 265 278.439 265 C 301.212 265, 302.682 263.446, 301.824 240.278 C 301.149 222.075, 298.830 220.004, 279.118 220.002 L 266.737 220 267.239 216.250 C 267.516 214.188, 269.481 197.538, 271.607 179.250 L 275.472 146 292.062 146 C 313.700 146, 314.982 144.781, 314.994 124.193 C 315.007 103.813, 313.053 101.627, 294.423 101.173 C 281.410 100.855, 281 100.779, 281.006 98.673 C 281.009 97.478, 282.806 81.650, 285 63.500 C 291.044 13.494, 292.829 17.500, 264.500 17.500 C 244.269 17.500, 241.135 18.320, 238.524 24.295 C 237.489 26.664, 228.851 95.404, 228.980 100.250 C 228.991 100.662, 215.950 101, 200 101 C 184.050 101, 171 100.748, 171 100.441 C 171 100.133, 173.025 84.135, 175.500 64.890 C 181.398 19.030, 181.461 20.333, 173.216 18.043 C 169.062 16.890, 143.160 16.804, 138.500 17.929 M 165.546 147.250 C 165.175 148.432, 156.941 217.657, 156.981 219.250 C 156.991 219.662, 169.956 220, 185.790 220 L 214.581 220 218.824 184.750 C 221.157 165.363, 223.052 148.713, 223.033 147.750 C 222.990 145.486, 166.253 144.993, 165.546 147.250" stroke="none" fill="#343434" fill-rule="evenodd"/></svg>