<svg xmlns="http://www.w3.org/2000/svg" width="512" height="512" viewBox="0 0 512 512" version="1.1"><path d="M 86.500 40.158 C 64.837 44.204, 44.009 65.409, 40.063 87.434 C 37.874 99.655, 38.662 300.359, 40.935 309.244 C 43.196 318.085, 46.885 325.834, 51.600 331.646 L 54.964 335.792 52.456 336.422 C 49.434 337.180, 42.731 343.685, 40.473 348.052 C 38.968 350.963, 2.180 445.654, 0.574 450.750 L -0.135 453 91.365 453 L 182.865 453 183.564 450.750 C 194.788 414.598, 195.956 414, 255.356 414 C 313.971 414, 315.884 414.736, 324.970 440.755 L 329.250 453.010 420.792 452.755 C 501.137 452.531, 512.391 452.317, 512.804 451 C 513.062 450.175, 512.914 449.835, 512.475 450.245 C 512.036 450.655, 505.213 434.230, 497.314 413.745 C 470.653 344.602, 472.102 348.023, 467.302 342.891 C 464.894 340.317, 461.602 337.663, 459.986 336.994 L 457.048 335.777 460.406 331.639 C 465.115 325.834, 468.805 318.082, 471.065 309.244 C 473.338 300.359, 474.126 99.655, 471.937 87.434 C 467.908 64.946, 447.054 44.092, 424.566 40.063 C 416.954 38.699, 93.824 38.790, 86.500 40.158 M 92.047 80.305 C 87.344 81.804, 81.712 87.681, 80.226 92.640 C 79.293 95.754, 79 120.865, 79 197.670 L 79 298.607 81.597 303.818 C 83.525 307.687, 85.392 309.734, 88.847 311.765 L 93.500 314.500 256 314.500 L 418.500 314.500 423.153 311.765 C 426.608 309.734, 428.475 307.687, 430.403 303.818 L 433 298.607 433 197.670 C 433 79.863, 433.535 84.473, 419.360 80.226 C 413.789 78.557, 97.291 78.633, 92.047 80.305 M 116.212 359.500 L 114.026 364 131.905 364 L 149.783 364 150.439 361.250 C 150.800 359.738, 151.329 357.712, 151.615 356.750 C 152.096 355.132, 150.863 355, 135.267 355 L 118.399 355 116.212 359.500 M 171.307 359.500 L 170.277 364 191.639 364 L 213 364 213 361.082 C 213 359.477, 213.273 357.452, 213.607 356.582 C 214.149 355.170, 211.958 355, 193.275 355 L 172.337 355 171.307 359.500 M 234 356.375 C 234 357.131, 233.719 359.156, 233.375 360.875 L 232.750 364 256.500 364 L 280.250 364 279.625 360.875 C 279.281 359.156, 279 357.131, 279 356.375 C 279 355.249, 274.924 355, 256.500 355 C 238.076 355, 234 355.249, 234 356.375 M 299.612 358.250 C 299.920 360.038, 300.345 362.063, 300.555 362.750 C 300.845 363.697, 305.886 364, 321.330 364 L 341.723 364 340.693 359.500 L 339.663 355 319.357 355 L 299.050 355 299.612 358.250 M 360.385 356.750 C 360.671 357.712, 361.200 359.738, 361.561 361.250 L 362.217 364 380.095 364 L 397.974 364 395.788 359.500 L 393.601 355 376.733 355 C 361.137 355, 359.904 355.132, 360.385 356.750 M 102.020 387.960 C 100.909 390.138, 100 392.163, 100 392.460 C 100 392.757, 109.599 393, 121.332 393 L 142.663 393 143.693 388.500 L 144.723 384 124.382 384 L 104.041 384 102.020 387.960 M 164.561 386.750 C 164.200 388.262, 163.671 390.288, 163.385 391.250 C 162.901 392.881, 164.426 393, 185.808 393 L 208.750 393 209.375 389.875 C 210.623 383.635, 211.974 384, 187.608 384 L 165.217 384 164.561 386.750 M 229.843 388.500 L 229.486 393 257.368 393 L 285.250 393 284.625 389.875 C 284.281 388.156, 284 386.131, 284 385.375 C 284 384.242, 279.258 384, 257.101 384 L 230.201 384 229.843 388.500 M 304.612 387.250 C 304.920 389.038, 305.345 391.063, 305.555 391.750 C 305.845 392.700, 311.127 393, 327.536 393 C 347.638 393, 349.099 392.879, 348.615 391.250 C 348.329 390.288, 347.800 388.262, 347.439 386.750 L 346.783 384 325.417 384 L 304.050 384 304.612 387.250 M 368.307 388.500 L 369.337 393 390.668 393 C 402.401 393, 412 392.757, 412 392.460 C 412 392.163, 411.091 390.138, 409.980 387.960 L 407.959 384 387.618 384 L 367.277 384 368.307 388.500 M -0 484.536 C 0 500.780, 3.122 507.473, 12.315 510.939 C 18.396 513.231, 497.423 512.335, 501.956 510.023 C 510.123 505.856, 513 498.972, 513 483.596 L 513 471.500 256.500 471.754 L -0 472.008 -0 484.536" stroke="none" fill="#343434" fill-rule="evenodd"/></svg>