<svg xmlns="http://www.w3.org/2000/svg" width="512" height="512" viewBox="0 0 512 512" version="1.1"><path d="M 105.289 81.074 C 96.716 82.173, 91.540 85.521, 81.697 96.332 C -1.931 188.195, -1.221 328.018, 83.328 417.611 C 116.723 452.998, 159.675 413.310, 127.121 377.144 C 80.521 325.372, 66.960 257.559, 90.545 194.232 C 98.951 171.659, 107.064 158.815, 130.488 131 C 139.698 120.062, 141.523 107.840, 135.660 96.348 C 131.264 87.731, 124.437 82.984, 113 80.591 C 112.175 80.419, 108.705 80.636, 105.289 81.074 M 397.500 80.974 C 371.642 85.789, 365.255 113.055, 384.879 134.856 C 431.479 186.628, 445.040 254.441, 421.455 317.768 C 413.049 340.341, 404.936 353.185, 381.512 381 C 359.061 407.662, 387.841 444.828, 417.486 427.455 C 458.946 403.158, 497.001 308.201, 492.115 241.238 C 486.384 162.700, 434.111 74.158, 397.500 80.974 M 174.500 147.391 C 152.222 154.396, 125.771 196.631, 119.519 235.183 C 107.574 308.837, 170.241 396.922, 205.380 355.869 C 217.111 342.164, 215.350 327.290, 200 310.429 C 169.743 277.194, 170.038 234.784, 200.763 200.673 C 224.943 173.828, 206.893 137.206, 174.500 147.391 M 321.500 146.879 C 296.483 153.489, 291.956 179.553, 312 201.571 C 342.257 234.806, 341.962 277.216, 311.237 311.327 C 294.054 330.404, 294.903 349.288, 313.500 361.677 C 345.514 383.003, 393.992 319.357, 393.992 256 C 393.992 199.304, 353.540 138.413, 321.500 146.879 M 246.500 221.342 C 206.701 234.558, 214.411 291.500, 256 291.500 C 294.147 291.500, 305.620 240.029, 271.111 223.704 C 263.635 220.167, 253.087 219.155, 246.500 221.342" stroke="none" fill="#343434" fill-rule="evenodd"/></svg>