<svg xmlns="http://www.w3.org/2000/svg" width="512" height="512" viewBox="0 0 512 512" version="1.1"><path d="M 76.028 1.546 C 47.967 9.373, 10.677 46.767, 1.959 75.821 C -4.856 98.533, 0.421 109.005, 34 139.402 C 93.748 193.489, 135.228 209.441, 160.992 188.240 C 163.484 186.189, 163.484 186.189, 171.492 193.877 C 224.001 244.287, 260.600 246.576, 325.046 203.480 C 360.198 179.973, 371.319 175.127, 392 174.303 C 459.456 171.617, 495.257 228.124, 464.997 289.519 C 457.752 304.217, 458.405 303.645, 452.583 300.391 C 442.543 294.779, 452.749 295.033, 235.960 295.016 C 17.453 294.999, 29.501 294.692, 19.557 300.520 C 0.330 311.787, 0.500 310.868, 0.500 403.500 C 0.500 492.265, 0.154 489.207, 11.474 500.526 C 23.403 512.456, 3.804 511.500, 236.500 511.500 C 468.761 511.500, 449.392 512.409, 460.741 500.978 C 473.168 488.461, 472.996 489.786, 473.022 406.540 C 473.044 337.754, 473.081 336.455, 475.066 334 C 535.880 258.810, 509.346 162.663, 422.757 144.449 C 383.538 136.199, 356.886 143.351, 310 174.706 C 271.877 200.201, 260.929 204.382, 242.500 200.485 C 221.675 196.080, 183.167 167.403, 188.568 160.322 C 209.632 132.705, 192.224 91.519, 132.436 27.522 C 107.813 1.166, 96.338 -4.119, 76.028 1.546 M 61.279 60.236 C 27.995 93.459, 27.718 93.800, 30.743 97.870 C 35.396 104.130, 35.592 103.989, 69.750 69.750 C 103.212 36.209, 103.290 36.104, 97.923 31.589 C 93.421 27.800, 95.058 26.520, 61.279 60.236 M 79.755 80.223 C 46.184 114.375, 45.970 114.679, 52.130 119.257 C 56.198 122.280, 56.561 121.986, 89.264 89.220 C 122.066 56.355, 122.619 55.619, 118 51 C 113.276 46.276, 112.667 46.741, 79.755 80.223 M 99.200 99.346 C 66.107 132.594, 65.848 132.939, 70.455 137.545 C 75.228 142.319, 75.468 142.139, 107.310 109.787 C 123.705 93.129, 137.797 78.522, 138.625 77.326 C 141.216 73.584, 137.321 68, 132.119 68 C 131.174 68, 116.361 82.106, 99.200 99.346 M 134.500 124.369 C 118.818 131.681, 118.818 153.844, 134.500 161.104 C 156.120 171.114, 173.351 139.910, 153.718 126.304 C 149.010 123.042, 139.418 122.076, 134.500 124.369 M 44.500 336.100 C 39.881 338.753, 40 336.956, 40 404.017 C 40 476.746, 39.350 472, 49.314 472 C 59.518 472, 59.151 474.761, 58.793 400.777 C 58.503 340.587, 58.482 340.036, 56.397 337.952 C 53.927 335.482, 47.356 334.459, 44.500 336.100 M 83.364 336.170 C 79.070 338.249, 79 339.329, 79 403.597 C 79 475.517, 78.479 472, 89.127 472 C 98.456 472, 98.004 475.484, 97.968 403.795 C 97.944 355.616, 97.645 340.121, 96.718 338.913 C 93.881 335.218, 87.877 333.984, 83.364 336.170 M 123.315 335.956 C 119.031 337.782, 119 338.275, 119 404.260 C 119 467.651, 119 467.651, 121.314 469.826 C 124.621 472.932, 131.846 472.857, 134.826 469.686 C 137.911 466.401, 138.303 341.831, 135.240 338.048 C 133.253 335.594, 126.813 334.465, 123.315 335.956 M 162.500 336.208 C 157.967 338.808, 158.065 337.318, 158.032 403.795 C 158 467.091, 158 467.091, 160.455 469.545 C 164.681 473.772, 172.975 472.883, 175.537 467.928 C 177.422 464.284, 177.753 343.747, 175.890 339.657 C 173.973 335.451, 166.967 333.646, 162.500 336.208 M 202.020 336.284 C 196.992 338.828, 197.031 338.311, 197.015 403.101 C 196.997 474.611, 196.609 472, 207.260 472 C 216.576 472, 216 476.461, 216 404.267 C 216 369.560, 215.720 340.435, 215.379 339.545 C 213.919 335.741, 206.617 333.959, 202.020 336.284 M 261.465 335.952 C 256.784 337.849, 256.518 339.124, 256.175 361.347 C 255.819 384.485, 256.176 388.176, 259.056 391.056 C 262.073 394.073, 426.412 394.106, 430.139 391.090 C 435.488 386.762, 433.954 338.667, 428.385 336.130 C 425.435 334.785, 264.765 334.614, 261.465 335.952 M 275.692 415.910 C 246.539 427.676, 252.526 469.847, 283.631 471.827 C 309.513 473.476, 324.177 443.216, 306.984 423.635 C 299.634 415.264, 285.773 411.842, 275.692 415.910 M 393.097 416.117 C 369.822 425.321, 368.648 457.673, 391.179 468.932 C 410.269 478.471, 432.391 464.539, 432.357 443 C 432.325 422.611, 411.952 408.661, 393.097 416.117" stroke="none" fill="#383434" fill-rule="evenodd"/></svg>