<svg xmlns="http://www.w3.org/2000/svg" width="512" height="512" viewBox="0 0 512 512" version="1.1"><path d="M 410.867 1.065 C 371.873 5.252, 341.012 32.670, 331.290 71.763 C 325.937 93.288, 335.495 161.348, 344.993 169.341 C 359.857 181.848, 372.255 167.659, 367.578 143.495 C 354.683 76.880, 361.059 52.562, 395.500 37.001 C 473.370 1.817, 506.842 107.366, 451.749 214.370 C 442.288 232.746, 455.718 249.560, 471.395 238.966 C 482.712 231.318, 503.017 174.900, 508.632 135.500 C 519.216 61.235, 488.454 6.804, 432.914 1.527 C 419.942 0.294, 418.354 0.261, 410.867 1.065 M 244.443 81.940 C 238.911 82.371, 233.511 83.206, 232.443 83.796 C 225.869 87.425, 7.961 307.788, 5.297 313.500 C 1.245 322.191, 1.244 334.803, 5.294 343.500 C 9.545 352.627, 159.373 502.455, 168.500 506.706 C 176.769 510.557, 189.700 510.726, 198 507.092 C 205.883 503.639, 426.992 283.177, 429.759 276.010 C 433.991 265.046, 431.849 204.463, 424.931 139.500 C 419.674 90.129, 422.192 92.982, 379.096 87.569 L 373.692 86.890 374.360 96.695 C 375.811 117.984, 377.017 122.289, 383.405 128.986 C 414.960 162.067, 378.093 213.610, 336.723 194.251 C 316.645 184.855, 307.854 159.469, 317.708 139.343 L 320.322 134.006 318.134 118.753 C 316.931 110.364, 315.931 98.942, 315.913 93.371 L 315.879 83.242 311.189 82.660 C 303 81.643, 254.902 81.125, 244.443 81.940" stroke="none" fill="#383434" fill-rule="evenodd"/></svg>